<svg width="50" height="43" viewBox="0 0 50 43" fill="none" xmlns="http://www.w3.org/2000/svg">
<g id="&#240;&#159;&#166;&#134; icon &#34;Envelope&#34;">
<path id="Vector" d="M49.0527 14.199C49.4336 13.8518 50 14.1766 50 14.7253V37.625C50 40.5924 47.9004 43 45.3125 43H4.6875C2.09961 43 0 40.5924 0 37.625V14.7365C0 14.1766 0.556641 13.863 0.947266 14.2102C3.13477 16.1586 6.03516 18.6333 15.9961 26.931C18.0566 28.6555 21.5332 32.2836 25 32.2612C28.4863 32.2948 32.0312 28.5883 34.0137 26.931C43.9746 18.6333 46.8652 16.1474 49.0527 14.199ZM25 28.6667C27.2656 28.7115 30.5273 25.3969 32.168 24.0307C45.127 13.2471 46.1133 12.3065 49.1016 9.61901C49.668 9.1151 50 8.33125 50 7.5026V5.375C50 2.40755 47.9004 0 45.3125 0H4.6875C2.09961 0 0 2.40755 0 5.375V7.5026C0 8.33125 0.332031 9.10391 0.898438 9.61901C3.88672 12.2953 4.87305 13.2471 17.832 24.0307C19.4727 25.3969 22.7344 28.7115 25 28.6667Z" fill="#91AC9A"/>
</g>
</svg>
