<svg width="53" height="59" viewBox="0 0 53 59" fill="none" xmlns="http://www.w3.org/2000/svg">
<g id="&#240;&#159;&#166;&#134; icon &#34;instagram alt&#34;">
<path id="Vector" d="M52.8293 17.2727C52.7969 14.8168 52.3849 12.3803 51.5961 10.0833C50.2158 6.16094 47.4051 3.05938 43.8468 1.54105C41.7896 0.687794 39.6146 0.230346 37.4132 0.178437C34.5819 0.0389319 33.6842 0 26.4971 0C19.3099 0 18.3887 2.17548e-07 15.578 0.178437C13.3795 0.230346 11.2045 0.687794 9.14727 1.54105C5.58902 3.05938 2.77538 6.16094 1.39799 10.0833C0.623945 12.3511 0.20602 14.7486 0.164816 17.1721C0.0382608 20.2964 0 21.2859 0 29.2085C0 37.1311 -2.19281e-08 38.1433 0.164816 41.2449C0.208963 43.6716 0.623945 46.0659 1.39799 48.3402C2.77832 52.2593 5.58902 55.3609 9.15021 56.8792C11.1986 57.7617 13.3736 58.2613 15.581 58.3391C18.4152 58.4787 19.3129 58.5208 26.5 58.5208C33.6871 58.5208 34.6083 58.5208 37.419 58.3391C39.6176 58.2905 41.7925 57.833 43.8527 56.9798C47.411 55.4582 50.2217 52.3566 51.602 48.4375C52.3761 46.1665 52.791 43.7722 52.8352 41.3422C52.9617 38.2212 53 37.2317 53 29.3058C52.9941 21.3832 52.9941 20.3775 52.8293 17.2727ZM26.4794 44.1907C18.9626 44.1907 12.8733 37.4783 12.8733 29.1923C12.8733 20.9063 18.9626 14.1938 26.4794 14.1938C33.9903 14.1938 40.0855 20.9063 40.0855 29.1923C40.0855 37.4783 33.9903 44.1907 26.4794 44.1907ZM40.6271 17.1364C38.87 17.1364 37.4544 15.5727 37.4544 13.6391C37.4544 11.7055 38.87 10.1417 40.6271 10.1417C42.3782 10.1417 43.7968 11.7055 43.7968 13.6391C43.7968 15.5727 42.3782 17.1364 40.6271 17.1364Z" fill="#91AC9A"/>
<path id="Vector_2" d="M26.4794 38.9355C31.3606 38.9355 35.3176 34.5736 35.3176 29.1929C35.3176 23.8121 31.3606 19.4502 26.4794 19.4502C21.5982 19.4502 17.6412 23.8121 17.6412 29.1929C17.6412 34.5736 21.5982 38.9355 26.4794 38.9355Z" fill="#91AC9A"/>
</g>
</svg>
